<?xml version="1.0" encoding="UTF-8" standalone="no"?>
<!-- Created with Inkscape (http://www.inkscape.org/) -->

<svg
   xmlns:dc="http://purl.org/dc/elements/1.1/"
   xmlns:cc="http://creativecommons.org/ns#"
   xmlns:rdf="http://www.w3.org/1999/02/22-rdf-syntax-ns#"
   xmlns:svg="http://www.w3.org/2000/svg"
   xmlns="http://www.w3.org/2000/svg"
   xmlns:sodipodi="http://sodipodi.sourceforge.net/DTD/sodipodi-0.dtd"
   xmlns:inkscape="http://www.inkscape.org/namespaces/inkscape"
   width="500"
   height="500"
   viewBox="0 0 500.00001 500"
   id="svg2"
   version="1.1"
   inkscape:version="0.92.3 (2405546, 2018-03-11)"
   sodipodi:docname="logo.svg">
  <defs
     id="defs4" />
  <sodipodi:namedview
     id="base"
     pagecolor="#ffffff"
     bordercolor="#666666"
     borderopacity="1.0"
     inkscape:pageopacity="0.0"
     inkscape:pageshadow="2"
     inkscape:zoom="1.4"
     inkscape:cx="280.24423"
     inkscape:cy="306.2429"
     inkscape:document-units="px"
     inkscape:current-layer="layer1"
     showgrid="false"
     inkscape:window-width="1920"
     inkscape:window-height="1018"
     inkscape:window-x="-8"
     inkscape:window-y="-8"
     inkscape:window-maximized="1"
     inkscape:snap-bbox="false"
     inkscape:object-paths="false"
     units="px"
     borderlayer="true" />
  <metadata
     id="metadata7">
    <rdf:RDF>
      <cc:Work
         rdf:about="">
        <dc:format>image/svg+xml</dc:format>
        <dc:type
           rdf:resource="http://purl.org/dc/dcmitype/StillImage" />
        <dc:title />
      </cc:Work>
    </rdf:RDF>
  </metadata>
  <g
     inkscape:label="Camada 1"
     inkscape:groupmode="layer"
     id="layer1"
     style="display:inline"
     transform="translate(0,-552.36219)">
    <path
       sodipodi:type="star"
       style="opacity:1;fill:none;fill-opacity:1;stroke:#00c853;stroke-width:3.32599998;stroke-miterlimit:1;stroke-dasharray:none;stroke-opacity:1;stroke-linecap:round;stroke-linejoin:round"
       id="path4216"
       sodipodi:sides="6"
       sodipodi:cx="145.30186"
       sodipodi:cy="97.719345"
       sodipodi:r1="38.714115"
       sodipodi:r2="33.54493"
       sodipodi:arg1="0.56456939"
       sodipodi:arg2="1.0881682"
       inkscape:flatsided="false"
       inkscape:rounded="0"
       inkscape:randomized="0"
       d="m 178.00829,118.43341 -17.13793,8.9993 -17.15419,8.96826 -16.36259,-10.34223 -16.34384,-10.37184 0.77535,-19.341528 0.81035,-19.340095 17.13793,-8.999301 17.15419,-8.968258 16.36259,10.342231 16.34384,10.371837 -0.77535,19.341532 z"
       transform="matrix(-2.6141164,4.6575888,-4.9847638,-2.4425388,1119.0714,359.05601)" />
    <g
       aria-label="{J}"
       transform="scale(0.93898538,1.0649793)"
       style="font-style:normal;font-weight:normal;line-height:0%;font-family:sans-serif;letter-spacing:0px;word-spacing:0px;fill:#00c853;fill-opacity:1;stroke:none;stroke-width:1px;stroke-linecap:butt;stroke-linejoin:miter;stroke-opacity:1"
       id="text4218">
      <path
         d="m 157.12751,796.47047 v -29.33575 c 0,-6.92191 -1.64808,-12.85499 -6.59231,-18.29364 5.10904,-5.10903 6.59231,-11.04211 6.59231,-18.12883 v -29.50056 h 24.22671 c 4.285,0 8.24038,-2.30731 8.24038,-8.24038 0,-5.93307 -3.95538,-8.24038 -8.24038,-8.24038 h -22.41383 c -6.09788,0 -10.54769,1.15365 -14.66787,6.09788 -3.46096,4.12019 -3.62577,7.25154 -3.62577,12.36057 v 26.0396 c 0,8.56999 -2.1425,11.37172 -10.8773,11.37172 h -13.34942 c -4.28499,0 -8.24038,2.30731 -8.24038,8.24038 0,5.93307 3.95539,8.24038 8.24038,8.24038 h 13.34942 c 8.7348,0 10.8773,2.80173 10.8773,11.37172 v 26.0396 c 0,5.10904 0.16481,8.24038 3.62577,12.36057 4.12018,4.94423 8.56999,6.09788 14.66787,6.09788 h 22.41383 c 4.285,0 8.24038,-2.3073 8.24038,-8.24038 0,-5.93307 -3.95538,-8.24038 -8.24038,-8.24038 z"
         style="font-style:normal;font-variant:normal;font-weight:normal;font-stretch:normal;font-size:164.80758667px;line-height:1.25;font-family:'OCR A Std';-inkscape-font-specification:'OCR A Std'"
         id="path3751" />
      <path
         d="m 300.13157,692.97131 c 0,-5.27384 -2.30731,-8.24038 -8.24038,-8.24038 -5.93308,0 -8.24038,2.96654 -8.24038,8.24038 v 94.59955 c 0,7.91077 -4.285,8.89961 -11.20692,8.89961 h -9.06442 c -9.72364,0 -11.70133,-2.63692 -11.70133,-12.19576 v -21.42498 c 0,-5.27385 -2.30731,-8.24038 -8.24038,-8.24038 -5.93308,0 -8.24038,2.96653 -8.24038,8.24038 v 23.8971 c 0,6.5923 0.98884,11.20691 5.10903,16.64556 5.93308,7.91077 13.84384,9.55884 23.07306,9.55884 h 9.55884 c 10.21807,0 18.45845,-2.80173 24.06191,-12.19576 3.13135,-5.60346 3.13135,-9.55884 3.13135,-15.82153 z"
         style="font-style:normal;font-variant:normal;font-weight:normal;font-stretch:normal;font-size:164.80758667px;line-height:1.25;font-family:'OCR A Std';-inkscape-font-specification:'OCR A Std'"
         id="path3753" />
      <path
         d="m 353.97472,796.47047 c -4.285,0 -8.24038,2.30731 -8.24038,8.24038 0,5.93308 3.95538,8.24038 8.24038,8.24038 h 22.41383 c 6.09788,0 10.54769,-1.15365 14.66788,-6.09788 3.46096,-4.12019 3.62576,-7.25153 3.62576,-12.36057 v -26.0396 c 0,-8.56999 2.1425,-11.37172 10.87731,-11.37172 h 13.34941 c 4.285,0 8.24038,-2.30731 8.24038,-8.24038 0,-5.93307 -3.95538,-8.24038 -8.24038,-8.24038 H 405.5595 c -8.73481,0 -10.87731,-2.80173 -10.87731,-11.37172 v -26.0396 c 0,-5.10903 -0.1648,-8.24038 -3.62576,-12.36057 -4.12019,-4.94423 -8.57,-6.09788 -14.66788,-6.09788 h -22.41383 c -4.285,0 -8.24038,2.30731 -8.24038,8.24038 0,5.93307 3.95538,8.24038 8.24038,8.24038 h 24.22672 v 29.50056 c 0,7.08672 1.48326,13.0198 6.5923,18.12883 -4.94423,5.43865 -6.5923,11.37173 -6.5923,18.29364 v 29.33575 z"
         style="font-style:normal;font-variant:normal;font-weight:normal;font-stretch:normal;font-size:164.80758667px;line-height:1.25;font-family:'OCR A Std';-inkscape-font-specification:'OCR A Std'"
         id="path3755" />
    </g>
  </g>
</svg>
